<?xml version='1.0' encoding='utf-8'?>
<svg xmlns="http://www.w3.org/2000/svg" version="1.1" viewBox="0 0 596.74 678.56"><g transform="translate(12436 -6988.8)"><path d="m-12138 6988.8c-2.162 0.2378-4.394 2.9656-6.6 9.543-6.377 16.028-12.677 34.433-21.801 44.922 1.327 11.174 9.784 37.666-9.347 37.328-21.712-1.0259-46.946 15.693-64.944 11.426-3.354-23.037-1.329-46.883 8.399-68.234 7.534-17.322-12.075-8.3597-16.406 0.4082-33.435 31.284-38.08 86.006-15.287 124.68 7.014 12.33 24.718 25.373 32.513 32.4-8.814-5.4167-19.66 11.271-5.974 10.264-5.602 14.64-19.799-11.811-4.493-14.728-15.596-15.55-32.999-32.202-34.951-55.562-5.767-21.191-27.447 20.103-39.695 10.49-38.274-30.516-48.241-85.246-35.75-130.77 3.747-23.353-18.497-0.3336-21.928 9.1817-36.073 55.514-18.061 135.75 34.447 174.51 17.988 17.297 41.681 25.837 65.225 32.436-0.611 4.1745-25.421-4.2089-33.965-7.3418-17.444-5.8308-30.472-24.244-44.31-31.646-28.036 32.465-45.678 73.44-53.205 115.49 0.02 19.018-5.515 35.828-24.838 42.762-20.264 14.79 24.404 16.653 21.308 33.205 3.405 44.494 16.853 88.353 41.118 125.96 12.494 12.831 18.15 27.135 9.39 43.871-12.419 30.364 20.329 9.7762 33.143 12.867 40.482 38.212 92.048 64.663 147.18 73.283 17.831 4.0311 22.248 27.37 35.159 39.051 2.042 2.6074 6.196 3.734 8.988 1.7051 14.194-10.831 18.075-32.708 34.406-40.287 46.183-6.5699 90.293-25.766 126.98-54.504 13.332-9.6023 24.69-30.527 42.332-15.871 26.733 9.5622 8.794-24.776 7.9-37.127 27.602-35.896 46.309-78.752 54.424-123.33 3.85-17.135-2.146-39.688 20.926-43.521 24.823-11.736-14.165-21.084-19.203-32.637-4.834-47.479-19.86-94.494-47.83-133.52-5.427-16.27-15.046-5.1946-21.565 2.8711-15.308 15.986-35.916 24.921-57.398 28.928-22.386 4.894 5.578-5.2164 13.828-7.1562 24.166-5.1045 40.66-24.076 59.248-38.559 40.393-40.479 49.335-107.1 22.445-157.32-3.062-10.077-26.631-39.12-23.045-13.258 9.254 42.749 2.096 92.526-30.541 123.96-13.611 22.726-28.875-7.7055-45.361-11.328-3.764 20.922-13.451 40.718-29.543 54.957-13.549 8.178-3.66 9.8781 0.17 19.373 2.948 14.02-20.784 4.4628-9.092 3.3007 10.396-3.5093-2.499-13.488-11.08-9.7695 17.385-12.498 33.813-28.008 41.563-48.305 11.495-26.168 8.714-56.449-3.122-81.947-8.065-13.303-19.864-39.918-36.636-36.387 6.579 25.497 16.023 52.364 8.713 78.877-12.89 2.1788-32.84-9.3092-48.989-9.8594-19.189 1.9881-28.057-9.9706-28.213-28.279 11.012-12.841-8.209-24.19-9.611-38.348-2.722-7.4586-8.587-29.162-15.072-28.449zm-0.438 7.4415c7.479 1.6612 9.378 23.436 14.34 32.434 8.429 20.072-4.856 0.4692-6.297-9.1152-4.688-23.277-6.249 9.2693-4.459 16.94-0.654 7.6622 32.942 8.6488 15.643 11.73-24.575-7.9689-12.521 24.882-14.568 38.482 3.006 12.482-1.029 4.8265-8.27 9.4785l-3.047 2.1074c1.634-2.9386 6.663-27.288 4.574-39.051 8.692-20.814-28.027-3.6193-19.236-14.91 20.703 1.8482 20.962-15.656 19.721-31.244-3.211-3.2457-6.382 19.745-12.065 24.197-1.964-7.6232 9.012-28.991 13.664-41.049zm-219.69 5.2011c-9.368 37.968-5.387 84.114 19.939 116.65 5.758 15.568 38.318 20.001 26.555 38.416l-1.428 2.8125c-12.923 18.453 1.133-3.9487-0.781-13.373-2.038 9.0663-10.732 14.912-14.266 2.6406-17.213-17.886-29.286-41.393-35.123-65.74-6.104-26.647-7.08-56.28 5.104-81.41zm443.46 0.9375c14.334 41.438 6.324 88.934-16.049 126.05-7.31 7.4044-19.173 35.527-28.014 23.912-6.321-16.458-4.865 0.4126-0.757 7.0019 9.242 26.427-14.428-30.366-9.34-5.0625 13.22 12.901-19.669 32.501-19.86 15.09-3.951-14.614-5.952-7.4598-2.55 3.6191 0.38 14.49-9.394 4.5583-7.917-4.7637-10.094-17.842-0.788 6.2374-4.345 13.184-6.592 6.2912-4.115-16.549-8.379-19.877 12.458-5.687 34.022-8.321 47.842-18.49 35.498-23.269 53.303-66.724 52.285-108.27 1.725-8.8859-5.73-33.436-2.916-32.389zm-321.44 19.463c-10.853 21.814-15.789 46.951-10.231 70.963-4.565 14.479 23.278 23.97 10.772 33.037-6.516 12.819-11.482-12.759-14.848-17.34-8.277-28.864-4.113-62.515 14.307-86.66zm198.6 1.9707c1.452 0.8351 11.702 21.032 11.609 25.957 5.79 22.912 6.557 49.082-4.828 70.492-3.141 17.898-22.823-0.3527-7.324-7.7578 15.204-24.234 11.85-55.866 2.732-81.791-2.179-5.3065-2.673-7.1787-2.189-6.9004zm-81.496 29.809c6.011 22.05 9.416 45.152 18.539 66.4-7.032-1.5347-8.997-13.686-11.484-20.022-2.273-13.977-11.699-35.518-7.055-46.379zm-36.317 0.7227c3.814 7.0454-1.551 17.24 3.825 23.461 15.927-6.0399-0.123 18.57-1.969 0.7402-8.385-0.3783-6.348 31.384-17.041 39.84-9.587 7.5873 2.194-10.528 1.842-12.715 7.434-15.969 7.173-36.508 13.343-51.326zm27.43 24.105c3.362 0.2421 6.972 3.1931 2.475 7.3672l-3.461 1.5254c-5.49-6.668-2.376-9.1346 0.986-8.8926zm-50.734 7.9981c5.152-0.3854 8.801 0.8294 8.627 5.7051-18.354 2.658-36.778 5.7926-54.285 12.119-3.162 1.1237-6.305 2.3384-9.59 3.0703-7.307-11.052 20.082-10.845 27.677-15.17 6.216 0.01 18.983-5.0823 27.571-5.7246zm80.478 0.7148c4.45-0.041 9.723 0.7256 12.672 2.4512 14.368 4.0698 37.514 4.9298 45.225 16.158l-1.737 2.3887c-18.028-7.6177-37.865-10.642-57.005-14.774-11.705-3.8446-6.572-6.1562 0.845-6.2246zm-40.193 14.508c3.305-0.323 6.491 0.8782 9.33 4.4571 21.715 8.0775 19.075 31.711 18.613 50.57-3.332 18.81 8.791 45.387-13.396 53.894-15.609 22.09-24.496-1.851-39.621-7.8574-2.455-26.587-0.05-53.487-1.658-80.174 5.84-5.2488 16.817-19.922 26.732-20.891zm-4.709 11.094c-3.445 3.3369-5.524 7.7651-8.574 11.43-0.747 1.7385-2.141 0.7709-2.526-0.6113-0.424-1.3995-2.095-4.2057-3.664-2.7403-0.744 2.3964-0.544 4.9651-0.66 7.4473-0.06 15.444 0.264 30.888 0.518 46.33 0.242 6.4819 0.123 13.056 1.558 19.416 0.809 3.9693 3.692 6.9661 6.569 9.6074 0.991 0.9514 1.978 1.9075 2.978 2.8496 1.444 0.9661 3.014 3.6824 4.926 2.8223 0.923-2.106 0.45-4.521 0.496-6.7617-0.26-4.0329-0.05-8.1368-0.91-12.104-0.644-2.9328-4.66-3.5905-4.971-6.6445 0.483-2.8865 4.101-3.4383 5.258-5.9082 0.899-2.7664 0.476-5.7526 0.572-8.6152-0.266-1.5683 0.389-4.6157-1.17-5.1446-1.207 1.6608-1.345 3.8094-2.101 5.6739-1.911 4.2515-4.749 8.1287-8.237 11.223-1.488 1.9886-3.462 0.4785-3.386-1.5527-0.617-2.7148 1.269-5.039 3-6.875 3.025-3.4406 6.889-6.1288 9.47-9.9492 2.388-4.0618 2.148-8.9689 2.368-13.516 0.09-10.606 0.191-21.219-0.19-31.82-0.334-1.3273 0.346-4.6813-1.324-4.5566zm9.57 0.7324c-0.467 0.042-0.763 0.433-0.691 1.4082 0.09 5.0948 0.324 10.212 1.084 15.254 0.102 2.4438 1.855 0.1638 3.105 0.7598 2.438 1.0834 3.887 3.5123 5.334 5.6387 1.077 1.6831 2.313 3.7183 4.463 4 1.889 1.2574 1.036 3.9602 1.02 5.8535-0.345 1.132-0.211 4.6445-1.76 4.0449-3.389-4.2332-6.104-8.9468-9.189-13.396-0.783-0.6772-2.79-5.111-2.987-2.6816-0.506 11.486-0.35 22.988-0.336 34.482 0.135 3.2522-0.169 6.609 0.746 9.7637 1.185 1.7466 5.155 1.2107 4.705 4.2597-0.703 3.2814-4.558 4.3641-5.783 7.3262-1.001 3.3563-0.686 6.9278-0.898 10.387v0.5508c-0.01 3.3946-0.286 6.8349 0.141 10.199 4.023-3.2105 7.507-7.0458 11.363-10.453 1.567-1.46 3.274-2.8221 4.988-4.0527 0.792-1.9605 0.712-4.1434 0.91-6.2188 0.639-14.758 0.744-29.538 0.465-44.307-0.241-8.2051-0.321-16.445-1.404-24.592 0.108-1.6195-1.14-2.5169-1.783-0.625-1.112 1.0365-0.93 5.4653-2.969 4.0508-2.434-3.05-4.244-6.5877-7.033-9.3614-0.588-0.7874-2.446-2.3833-3.475-2.291zm-147.97 8.5059c3.504 0.5824-1.079 9.7006-8.291 11.215-2.059 1.3605-4.14 2.6911-6.247 3.9766-18.048 8.2023 0.201-10.321 8.133-12.33 3.169-2.3005 5.236-3.0555 6.405-2.8613zm286.31 0.3633c6.888-0.1312 22.858 12.421 23.178 17.377-7.224 1.2782-21.508-9.9135-25.5-16.484 0.541-0.5955 1.338-0.8738 2.322-0.8925zm-54.81 0.2265c17.925 2.3434 2.12 28.14-6.993 19.236-9.551-15.008 2.03 3.8695-2.597 7.6075l-1.955 1.3691-1.289 0.3281c-10.906-12.913-4.551-28.869 12.834-28.541zm-177.21 0.3028c1.444-0.051 3.13 0.294 5.058 1.1464 14.787 0.5585 20.634 7.9326 14.563 22.51-0.753 9.1418-8.92-3.3174-14.424-2.5898-13.555-0.9479-15.306-20.709-5.197-21.066zm128.71 2.7714c2.351-0.096 4.999 0.2768 7.409 1.3672 24.657-7.0215 16.472 19.348 23.521 33.723 4.618 19.159-7.489-16.178-7.719-13.852 3.586 15.496-2.9 3.646-11.451 8.3457-1.011-12.861 0.566-0.5745-4.81 0.9278 0.126-15.481-6.635-3.7256-10.817 2.9062-9.714-9.8237 15.187-23.891 5.016-26.631-12.597-1.9933-8.201-6.4988-1.149-6.7871zm-85.021 0.4707c1.755 0.064 3.564 0.2451 5.396 0.5274 16.784-1.3188 3.029 7.9774-6.107 7.0117 12.256 6.6872 15.397 26.395 0.533 27.793-0.35-8.2165-7.53-7.9509-6.683-19.051-1.04 12.403-10.386 2.9333-12.534 15.674-10.17 20.349-0.594-4.4852 0.59-12.037-3.15-15.166 6.518-20.368 18.805-19.918zm39.457 4.2051c2.937 0.3611 0.636 4.0007-0.32 5.3574-2.644 3.5281-5.32 7.0514-7.506 10.893-0.228 0.3985-0.462 0.7933-0.703 1.1836-0.896 1.0754-2.469 4.9846-3.699 2.6094-0.857-2.7217-1.233-5.7642-0.477-8.5488 1.744-2.9038 4.402-5.125 6.863-7.4082 1.842-1.4755 3.575-3.3037 5.842-4.086zm-157.78 19.34c6.538-0.7069 16.927 6.23 25.303 7.5371 16.791-1.5318 12.18 9.8671 10.027 21.275-0.708 13.397-5.654-3.7197-3.934-7.8164 5.258-18.312-6.723-4.4844-5.066 5.3437-9.284 19.926-2.704-29.028-8.451-10.275 2.919 19.98-24.854 6.9328-24.223-3.6719-0.117-8.7931 2.421-11.968 6.344-12.392zm169.88 13.682c0.738-0.075 1.986 0.562 2.56 1.3027 3.503 2.9649 6.725 6.2931 9.567 9.8965 1.218 1.4384 1.577 3.4915 0.719 5.1992-0.239 0.5431-0.49 1.3373-1.182 1.4278-2.023-0.5226-3.22-2.5353-4.666-3.9278-3.011-3.6375-5.462-7.7691-7.235-12.144-0.602-1.2058-0.337-1.6955 0.237-1.7539zm115.15 3.0918c0.583 0.5572 1.335 3.4829 2.258 10.203-4.091 29.448-4.782-12.618-2.258-10.203zm-241.72 2.3359c0.685-0.4854 1.247 1.7646 1.025 8.8516-0.04 3.901 0.06 7.8139-0.371 11.699-4.279-5.1756-2.163-19.483-0.654-20.551zm335.08 14.69c27.84 36.167 44.229 80.346 49.617 125.49 2.169 9.793-2.367 8.3648-4.762 1.3925-5.922-31.866-14.225-63.693-29.791-92.357-1.918-11.362-26.4-28.483-15.064-34.523zm-427.01 0.8613c6.56 13.679-19.115 28.243-21.756 44.137-14.285 26.642-20.656 56.34-26.525 85.648 0.213-0.1232-5.296 5.2224-4.719 1.1054 4.741-47.276 21.938-94.55 53-130.89zm174.05 2.0723c4.724-0.2504 7.679 1.0872 6.193 6.1055-31.529 3.9481-66.021 7.6371-91.287 28.949-3.047 5.1716-12.639 13.505-6.715 1.5371 15.005-20.962 42.215-26.309 65.846-31.787 5.305 0.4412 18.089-4.3874 25.963-4.8047zm78.703 1.0332c10.833-0.7155 25.166 4.4294 35.574 5.8691 21.245 6.3147 46.129 14.664 56.623 35.775l-0.26 1.0606c-12.362-12.205-28.164-22.409-45.234-27.617-18.137-6.325-38.241-6.6662-56.094-12.064 2.559-1.8948 5.78-2.7849 9.391-3.0234zm7.769 10.666c7.595 0.4602 15.078 5.3984 6.536 13.947-4.067 3.2978-10.214 2.8457-13.743-1.0274-8.093-9.3628-0.387-13.38 7.207-12.92zm-96.322 0.832c7.283-0.7874 15.29 2.6581 8.356 11.998-3.002 3.7976-8.588 4.353-12.372 1.3984-9.828-7.5889-3.267-12.609 4.016-13.396zm142.67 8.6133c2.589-0.14 4.288 2.2476 2.082 9.7832-17.783 3.0735-7.778-9.475-2.082-9.7832zm-190.01 1.6973c4.739-0.6404 9.804 1.8335 4.635 8.6328-1.7 2.394-4.845 2.9054-7.318 1.4141-6.471-5.653-2.056-9.4065 2.683-10.047zm288.21 1.4297c4.542 0.084 12.345 5.6585 13.352 11.656 9.462-5.2413 7.817-1.2915 5.671 5.5371 8.996 19.689 18.55 39.397 23.153 60.713 5.769 13.557-6.892 0.7806-10.387-2.0215-9.641-23.732-16.857-49.438-34.271-69.012-1.794-4.9977-0.243-6.9235 2.482-6.873zm-388.65 0.4023c2.585-0.6168 5.102 1.1646 7.388 6.7656-16.444 20.791-26.009 45.871-34.857 70.488-3.415 1.4147-6.201 3.9397-9.506 5.5625-0.694-14.005 9.097-35.718 16.225-50.922 4.62-6.6126 12.993-30.044 20.75-31.894zm160.56 8.5215c7.91-0.22 15.761 0.2409 23.395 1.8027 9.388 13.432 17.82 3.8434 28.244-1.334 35.593-0.913 73.774 3 103.72 24.106 10.342-1.8058-0.761-11.245-1.923-15.502 15.706-6.8281 7.574 16.665 5.681 23.424-17.402-13.343-38.641-20.477-60.043-24.299-17.21-1.0389-38.191-7.9678-53.392 0.1347-9.594 21.838-20.154-7.8625-34.862-3.5957-31.944 1.05-66.613 4.6633-93.168 24.041-5.361 13.223-15.769-23.055-4.685-21.476 15.192 2.85-5.705 6.92 0.04 15.055 10.526 1.2822 30.923-17.572 47.701-17.502 12.763-2.2264 26.106-4.4869 39.289-4.8535zm188.01 2.0449c2.283 0.131 4.813 0.7583 7.629 1.9824 28.328 29.53 42.986 70.006 46.834 110.18 18.854-3.2264 23.565-23.552 16.889-39.172 22.474 14.714 42.898 32.466 65.599 46.934-13.593 11.468-36.649 21.366-53.578 32.824-13.266 11.32-11.072-0.1435-8.756-11.314 0.284-16.987 6.257-0.615 7.916 5.4102 14.521-8.8075 30.002-17.8 43.629-27.106-15.253-10.682-30.252-21.748-44.777-33.41-1.676 3.8856-5.466 23.454-18.272 26.774-18.143 10.504-5.064 37.251-12.969 54.453-6.564 25.638-14.877 55.166-38.609 70.092-3.616 1.3505-15.087 5.2498-16.445 1.375 26.338-5.2372 40.332-34.718 36.387-59.613-0.748-2.6372-9.608 30.689-25.192 20.703 5.979-3.2395 5.595-6.8733 5.615-15.527 12.164-14.266 2.564-35.469-15.714-37.701 3.049-1.7766 30.123-5.4067 33.687-20.555 16.353-28.613 4.914-64.515-12.805-89.613-19.977-18.937 1.794 8.2004 3.061 17.975 6.735 20.027-3.683 50.153-28.606 47.971-2.174 1.1336 15.989-18.909 8.297-31.352 1.188-18.686-24.823-21.872-25.496-35.668 5.792-13.162 9.698-36.561 25.676-35.644zm-301.4 0.25c3.053 0.219 6.371 1.4027 10.009 3.8555 2.242 14.395 27.336 39.524 2.116 44.523-17.584 10.472-23.48 42.174-4.207 53.75-23.807 3.3395-38.879-22.538-32.227-43.572-0.978-10.053 25.088-38.176 4.781-21.389-13.82 18.616-24.755 41.99-22.615 65.703 1.504 21.946 18.709 43.307 42.029 42.654-3.861 2.2684-27.199 14.458-19.074 29.654 10.056 6.1496-2.486 25.569 8.986 21.346 4.399 10.567-21.739-0.054-20.966-10.197-1.224-26.647-7.186 8.9655-1.985 18.578 4.163 17.862 19.354 31.084 36.856 34.857-9.719 2.3788-19.771-2.0489-26.949-8.4766-24.035-23.284-30.086-58.675-32.752-90.648 6.686-23.579-15.653-29.922-28.235-44.23 4.416-17.32-8.092-5.5697-14.793 0.033-7.091 10.071-45.901 22.266-20.547 29.959 11.115 3.0357 29.717 25.412 35.934 15.777 4.31-22.434 6.649 8.4812 8.299 16.26-22.627-11.601-44.23-25.174-66.254-37.826 19.632-13.231 38.481-27.654 57.535-41.738 20.776-17.587-7.39 24.416 14.943 26.275 15.028 17.742 12.916-5.7427 14.95-16.713 1.787-21.954 18.962-41.432 11.08-63.678-1.538-16.326 1.829 5.8763 7.818-1.959 0.755 6.5081-0.388 15.589 5.998 4.0625 7.779-10.634 16.039-27.81 29.27-26.861zm186.41 13.068c11.046 0.079 22.764 2.4115 32.656 2.6015 20 0.6871 16.559 28.226 21.486 42.752 7.493 18.313-8.618 33.15-13.638 46.689 2.155 24.425-7.151-11.21-13.719-16.197-9.078 7.1954 6.836 32.433 6.295 46.248-8.519 3.7672-12.397-17.835-19.32-23.596-9.708-5.3264-27.278-38.218-32.809-17.088 11.482-9.1564 14.771 21.234-0.397 10.264-9.841 10.216-24.268 14.326-34.267 0.3457-14.557 12.046-14.887-20.132-2.207-9.9726 6.405-6.3104-7.263-14.187-11.098-3.0567-13.49 12.075-27.326 23.981-34.16 40.902l-1.67 1.7382-1.496 1.4239c-10.034-5.0761 7.18-26.108 5.998-37.574 1.787-25.448-13.362 9.7088-16.187 17.832 4.716-17.496-14.103-24.608-14.635-42.072-0.352-18.819 4.432-40.966 12.09-56.32 21.003-4.9492 43.803-6.7812 64.713-1.1094 17.615 0.43 6.354 38.584 2.773 20.99-1.016-18.225-0.03 7.5467-9.82 6.3222-18.464-1.3078-43.054-14.667-55.121 6.4082-12.281-1.6407-4.902 5.2732 2.978 6.2559 15.063-8.4841 12.893 14.462 28.066 10.436 26.201-9.2569-14.904 18.152-5.81 17.344 12.811-1.7319 29.212-29.406 37.602-16.758 7.99-13.775 12.362-26.674 14.201-42.994 4.125 5.6222 7.178 23.398 8.757 32.842 10.698 0.7562-0.932 37.182 7.155 20.078-0.763-25.862 21.568 2.8859 33.472 4.9042 15.858 11.111 1.536-5.304-5.544-9.5039-19.683-16.097 7.062 0.105 14.724-9.6464 11.682-16.358-11.28 3.6371-18.883-5.1856-15.733 0.4119-1.184-8.5732 5.616-2.1933 10.887-5.7657 19.16 0.052 30.88 0.9453 19.313-6.1571-4.714-6.3271-8.162-16.074-16.911-10.448-46.779 17.91-53.185-7.7578 2.946 21.105-14.995-0.8016-5.961-9.3105 7.206-8.8197 17.58-10.992 28.627-10.912zm28 7.0566c-1.179 0.01-2.39 0.4578-3.459 0.9004-4.921 2.1211-9.656 4.6432-14.5 6.9316-4.167 1.9581-8.277 4.0868-12.639 5.5879-1.053 0.5649-2.068 0.1347-2.996-0.1171-1.713 0.6168-3.113 1.8527-4.492 3.0058-1.133 1.0545-2.428 1.9893-3.373 3.2246-0.05 1.2001 2.075 0.5582 2.963 0.7363 4.998-0.1929 9.821-1.7249 14.523-3.3164 6.458-2.1934 12.57-5.2523 18.895-7.7773 2.608-0.9927 5.585-2.0519 8.31-0.8477 3.286 1.4695 6.022 3.9164 9.303 5.4024 0.806 0.3876 3.322 1.5582 3.021-0.2149-0.859-2.0046-2.514-3.526-3.986-5.0859-2.961-2.8575-6.005-5.6958-9.521-7.8633-0.646-0.4132-1.342-0.5703-2.049-0.5664zm-130.35 0.1055c-0.659 0.012-1.31 0.1583-1.929 0.5098-3.702 2.2249-6.993 5.0716-10.118 8.0371-1.296 1.3615-2.824 2.6287-3.629 4.3593-0.249 1.923 2.107 1.0397 2.981 0.3985 3.334-1.7774 6.176-4.6033 9.951-5.4532 3.365-0.5826 6.61 0.8725 9.693 2.0157 9.889 4.0384 19.746 8.5518 30.356 10.338 1.602 0.2525 3.273 0.6065 4.83 0.8457-0.965-2.1731-2.235-4.2221-3.73-6.0743-0.852-0.8771-1.669-2.2639-2.963-2.3261 0.04 1.0746-0.897 1.7463-1.948 1.3203-3.424-0.8568-6.59-2.4865-9.81-3.8945-6.491-2.9407-12.831-6.2148-19.402-8.9766-1.331-0.5045-2.83-1.126-4.282-1.0996zm-34.045 6.4199c-1.42 16.215-10.132 33.994-25.744 40.588-19.756-0.6953-24.903 19.001-7.906 28.293-21.144 2.8781-15.027-31.821-2.996-39.592 10.123 0.9361 22.58-28.662 18.816-16.184 1.947 9.4986-30.988 24.652-11.336 20.111 16.252-3.0005 19.033-31.94 29.166-33.217zm200.86 1.6777c7.382-0.5212 12.331 26.632 23.763 30.377 23.056 10.514-4.333-8.3097-6.628-16.66-6.468-10.416-2.611-10.416 1.921-0.4668 13.032 13.212 39.061 33.676 19.477 53.34-22.625 7.2025 22.775-18.936-4.309-24.549-20.988-1.7655-32.357-22.964-35.736-41.553 0.517-0.2958 1.02-0.4535 1.512-0.4883zm-55.072 21.934c1.136-0.1077 2.7 0.1604 4.566 1.1758-7.552 2.8618-7.976-0.8526-4.566-1.1758zm-95.375 0c0.968-0.1111 2.313 0.1549 3.941 1.1719-6.369 2.898-6.847-0.8383-3.941-1.1719zm-9.606 1.7286c1.523 0.2593 4.047 1.493 7.809 4.2441 6.776-2.0804 26.024-2.0127 9.826 3.0391-12.012 8.7611-24.234-8.4071-17.635-7.2832zm-50.012 18.873c2.247 8.5679-4.107 28.854-12.056 38.541-12.723 18.896-41.248 21.033-56.828 4.5039-2.023 5.8852 20.477 22.023 33.136 15.695 13.482-5.7637 10.792 0.157 0.6 4.1231-18.88 7.2073-37.46-8.5123-41.139-26.668-5.926-8.4987 3.322-46.809 2.365-19.787-2.685 20.625 19.497 34.849 38.159 30.717 21.212-5.9882 24.389-31.433 35.763-47.125zm216.02 0.3438c1.464-1.2837 8.284 12.619 9.988 16.891 5.576 16.145 18.839 34.663 38.428 29.932 21.675-2.5684 26.671-25.125 25.32-43.272 6.285 20.029 2.651 46.333-16.699 57.92-10.034 4.3721-22.007 3.4142-30.111-4.3653 5.391 0.019 29.581 6.7454 37.285-7.2461 12.809-18.282-7.789 4.1206-16.121 3.4571-26.492 4.7651-45.555-22.334-47.381-46.053-1.091-4.7217-1.197-6.8358-0.709-7.2636zm-203.5 4.7265c-4.145 19.865-15.99 37.23-19.399 57.447-4.576 22.607-30.402 30.183-37.603 51.16-1.849 4.9959-3.174 8.5118-3.846 0.5039-2.993-23.266 25.594-29.443 31.194-49.121 6.312-21.604 18.562-40.648 29.654-59.99zm225.65 0.2403c1.426-0.2603 3.511 0.4332 6.207 3.0097-8.835 7.1362-10.485-2.229-6.207-3.0097zm-260.4 0.3984c1.423 0.2747 2.599 1.3952 2.762 3.9043l-0.739 1.2324-0.84 0.4961c-11.954 0.3224-5.454-6.457-1.183-5.6328zm227.81 1.9277c10.145 18.705 22.72 36.376 28.908 56.961 4.745 18.626 30.282 23.457 30.793 43.799-0.401 2.6665 1.348 8.5925-1.425 9.918-4.983-22.663-31.16-30.23-38.125-51.594-3.435-20.883-16.255-38.592-20.151-59.084zm1.696 16.908c0.255-0.2315 1.771 1.5861 5.056 7.0117 1.477 0 1.254 3.0392 1.823 4.0137-4.227-4.5606-7.305-10.64-6.879-11.025zm72.046 3.086c1.335 0.8917-1.915 6.4314-8.115 9.4257-15.015 6.0122-10.399-0.321 0.406-4.4589 4.456-4.3645 6.908-5.5019 7.709-4.9668zm-342.83 0.6074c1.492-0.5963 13.673 7.0406 19.045 10.582-3.974 2.0351-9.258-1.6408-12.81-3.5078-5.382-4.8313-6.913-6.8032-6.235-7.0742zm-71.312 1.0898c4.212 0.3979 9.245 6.0233 14.574 8.8321 14.421 4.5087 3.769 5.8236-5.285 2.2578-11.408-9.8049-6.682 2.4029-4.488 9.3652l-0.651 1.3613-0.847 0.2539c-2.319-12.631-15.824 5.9795-7.868-7.9531-5.73-2.8712-16.035-3.5185-2.017-7.4492 1.823-5.2624 4.054-6.9067 6.582-6.668zm486.52 0.6504c2.351 0.097 4.08 1.7196 4.528 5.8985 10.748 0.5201 11.668 5.2914 0.632 7.2929 6.342 10.982-3.266-0.202-5.976 6.9199-1.077 2.815-5.345 0.9472-4.041-1.6738 8.628-17.238-5.247-5.5668-15.297-5.9336 0.452 0.6443 13.102-12.796 20.154-12.504zm-337.83 7.5352-2.158 3.3105-1.418 2.2696c-11.682 19.462 6.078-18.702 3.576-5.5801zm188.83-1.9551c0.983 0.1272 5.569 5.5475 7.444 10.584 3.501 9.0577-2.893-1.2664-3.957-3.8711-3.369-4.9613-4.076-6.7892-3.487-6.7129zm-61.367 2.0664c3.287-0.2426 9.122 6.0538 11.338 12.195 4.963 9.7239-10.547-3.5161-13.172-3.25-1.194-6.3008-0.138-8.7997 1.834-8.9453zm-68.041 0.2715c4.977-1.1936 9.188 9.7202-0.816 11.592-12.146 7.406-11.742 2.918-3.918-5.5801 1.33-3.8714 3.075-5.6138 4.734-6.0117zm248.44 8.2129c15.998-0.2026 29.935 27.686 43.759 6.3164 18.398-10.622-3.583 9.056-10.414 12.391-10.253 5.5109-24.294-13.505-33.345-18.707zm-429.03 0.123c5.02 0.3065-15.465 12.867-21.31 16.438-2.231 1.4621-4.433 3.0497-7 3.8907-6.426-4.056-37.086-24.107-14.612-14.912 10.974 16.076 23.214 5.0805 34.879-3.4101 4.369-1.4955 6.885-2.0766 8.043-2.0059zm123.01 0.5547c1.628-0.4709-6.637 11.289-5.744 16.576 0.596 20.288 2.953-5.514 10.943-8.4317-8.941 11.879 2.741 31.748 18.875 18.975 13.567-13.008 30.972-19.399 49-23.537 7.197 7.9396-17.503 22.496-21.033 33.156-8.636 2.385 14.888-33.369 4.262-21.805-12.421 12.472-15.891 34.964-35.191 39.205-17.728 4.0429-37.533-4.6172-36.012-25.318 3.168 21.329 35.15 29.719 47.267 11.385 9.784-21.82-5.602 3.3439-15.201 2.541-23.858 8.588-32.094-21.396-22.799-37.506 3.447-3.5677 5.09-5.0832 5.633-5.2402zm186.22 1.0332c8.88-0.6284 14.751 38.277-4.453 41.727-9.892 9.2043-27.408-15.86-27.707-8.9102 4.209 17.648 30.984 22.558 40.236 6.6895 9.122-24.762 4.781 10.752-7.951 12.35-20.424 8.3005-33.315-6.5964-42.324-22.791-12.494-17.271 0.482 6.2381 2.119 13.818-6.08-3.5317-19.515-26.515-29.619-36.957 1.184-5.7631 24.521 5.0655 32.168 10.06 8.967 12.301 41.224 23.472 35.841-2.6113-5.865-13.088 2.781-7.9216 4.327 2.002 2.139 23.528 7.317-9.822-2.637-15.377zm-76.709 5.3613c3.378 0.8268 15.601 15.271 13.894 22.639 1.194 11.367-9.006-12.189-10.878-13.383-4.259-7.1953-4.551-9.6317-3.016-9.2559zm-24.371 0.7325c7.787 12.284-6.873 12.391-12.586 19.162-13.712 15.198 3.029-14.931 6.353-18.953 2.353 1.3245 0.439 15.787 6.233-0.209zm17.533 0.8125c2.91-0.4491 9.452 10.814 11.137 17.789 3.174 9.6393-8.539-8.168-12.057-8.416-0.975-6.5464-0.403-9.1689 0.92-9.373zm256.1 19.211c-1.267 46.577-18.41 91.791-43.694 130.55-1.567 2.2329-11.881 19.113-10.547 7.7579 16.453-25.099 29.976-52.214 38.389-81.111 8.967-16.609 4.451-46.734 15.852-57.199zm-530.09 1.1484c0.693 0.1686 1.591 0.8216 2.742 2.0782 5.359 47.496 21.133 94.165 49.584 132.92 0.347 1.2994-0.521 5.708-2.613 4.3613-26.119-31.898-42.022-71.435-48.971-111.87-0.295-6.0684-5.591-28.664-0.742-27.484zm264.91 0.9747c5.815-0.1075 11.327 0.9374 10.746 4.1425-4.951 1.9126-10.368 1.1914-15.537 1.3106-15.432-1.8968-4.9-5.2741 4.791-5.4531zm10.412 8.4375c16.721-0.01 26.471 13.959 33.58 27.982 14.307 11.321 5.046-1.2988 0.686-9.0703 14.707 1.72 22.83 25.414 33.31 37.822 6.17 3.7406 14.589 37.358 5.551 20.307-3.22 4.3942 4.558 23.116 4.305 32.883 2.019 30.171-26.797 49.024-36.17 75.318-2.469-25.284 27.174-38.352 29.07-62.732 2.138-6.7355-2.995-42.246-5.619-21.752-1.941 17.321 1.035 36.558-12.767 50.076-16.831 18.822-22.959 44.526-40.61 62.789 2.342-19.221 13.849-38.107 23.686-55.322 12.403-16.231 23.262-33.601 27.103-54.031 8.69-22.919-7.133-43.805-12.166-65.428-3.113 6.8524 7.97 23.952 10.25 34.693 6.842 33.151-17.806 63.42-44.131 80.387-7.829 1.5772 13.357-16.754 14.395-23.834 6.014-22.217-5.229 11.378-13.758 15.502-18.051 16.611-29.014 40.315-27.555 65.062 4.88-9.3143 11.063-38.382 26.614-49.336 17.013-17.331 3.828 9.9785-1.715 16.504-12.589 15.972-21.055 34.961-23.276 55.252l-0.285 2.3535-0.574 2.1446c-3.442-10.086-6.089-27.977-13.853-39.236-8.112-14.224-20.915-28.402-23.489-44.266 14.345 10.579 24.804 25.897 31.489 42.33 3.463-1.8898-4.542-30.189-12.545-38.48-12.214-15.071-27.983-27.486-35.465-45.928 3.148 18.408 21.093 28.889 29.299 44.082-19.567-12.484-36.514-30.484-42.332-53.52-7.212-19.018 0.141-38.378 5.789-56.594 2.723-19.622-2.058 2.1201-4.625 9.6133-11.854 24.275-6.637 52.179 3.164 76.15 15.584 25.939 30.65 52.75 40.49 81.488-21.088-15.242-25.252-42.478-41.398-61.6-15.007-14.839-7.76-36.207-11.858-54.539-3.532-22.937-7.075 12.73-6.644 19.994-1.929 22.442 19.822 35.85 25.632 55.66 3.402 17.114-1.028 6.5539-5.554-2.6035-13.669-19.003-30.88-39.675-26.301-64.922-0.434-6.9317 12.065-41.508 0.344-22.822-1.063-18.404 15.514-30.095 22.619-45.465 0.395-6.458 24.345-26.747 19.371-13.938-12.021 14.465 5.505 6.5524 7.496-3.1426 2.273-18.737 24.476-20.764 40.842-18.934 2.686-0.6124 5.217-0.899 7.605-0.9003zm-168.23 2.1093c0.721 0.2198-1.875 5.3379-4.938 9.9629-3.032 10.151-3.852-0.4048-0.56-3.9023 3.438-4.5601 5.065-6.1924 5.498-6.0606zm396.54 1.0918c-4.822 32.653-16.398 64.472-34.176 92.318-3.393 7.6882-9.348 9.5025-12.453 0.3828 8.938-15.833 18.139-31.787 24.275-49.033 6.828-15.361 4.292-35.969 22.354-43.668zm-478.38 3.2442c10.811 0.6555 15.589 18.946 17.674 29.531 2.726 23.613 25.392 43.915 26.125 65.09l-2.364 2.83-1.158 1.1758c-22.027-28.252-36.088-63.061-40.277-98.627zm351.08 0.8164c3.011 0.7011 13.83 14.466 14.33 21.226 1.521 5.7758 1.539 11.814 1.107 17.73-5.373 0.3259-8.612-22.191-13-29.932-3.561-6.9646-3.806-9.3441-2.437-9.0254zm-224.75 1.5175c2.999-1.1769-3.563 14.312-5.877 21.074-1.004 2.9623-2.061 5.9075-3.191 8.8242-8.795 23.058-5.741-17.429 2.371-22.227 3.636-5.0364 5.697-7.2795 6.697-7.6719zm111.07 0.459c-5.224 0.325-11.06-0.3035-15.55 2.8789-6.882 5.7491-13.849 11.744-18.721 19.371-6.038 9.2835-6.235 20.72-10.041 30.869-3.285 8.2441-7.495 17.18-4.985 26.24 2.789 10.259 8.893 19.228 12.54 29.141 0.676-5.1508-1.555-10.123-2.87-15.014-3.398-9.2234-4.857-19.238-3.175-28.986 1.532-8.8699 3.338-17.696 4.814-26.576 1.993-9.9561 8.776-18.458 17.516-23.438 3.48-1.6439 7.808-5.0896 11.056-4.9961-3.175 6.8331-10.901 9.7398-15.062 15.785-4.492 7.4765-1.184 16.652-3.715 24.662-2.785 7.6496-6.845 14.961-7.723 23.191-1.692 10.787 2.68 21.474 9.047 29.992 0.672 1.3091 5.486 7.3538 3.731 2.6641-3.911-7.9556-7.419-16.229-8.795-25.051-2.224-11.211 3.129-21.79 5.849-32.387 1.253-6.5374 2.568-13.501 7.164-18.644 2.194-3.2057 6.024-4.053 9.18-5.8125 3.934-4.1347 5.496-9.8996 8.885-14.447 2.427-0.9288-0.131 5.2924-0.613 7.0137-1.203 4.3328-4.271 8.149-4.471 12.717 1.066 4.897 3.522 9.4004 4.598 14.322 1.918 8.0977 3.552 16.285 6.406 24.129 4.246 12.825 1.314 26.41-0.778 39.332-0.331 3.8233-2.107 7.2178-2.628 10.892 0.05 1.4423-0.488 8.3438 0.613 5.9629 2.669-12.062 8.106-23.291 10.924-35.303 2.082-8.1723 0.443-16.777-3.1-24.295-3.482-7.1662-7.214-15.209-4.939-23.336 1.504-4.9056 4.672-9.8259 2.943-15.162-1.749-5.4555-4.764-10.683-4.898-16.539 2.406 1.0669 3.881 6.0057 5.595 8.7109 1.513 3.3339 3.579 7.3926 7.916 6.8731 5.095 1.0541 7.709 6.2392 9.836 10.498 2.514 4.9455 1.513 10.652 3.262 15.809 2.834 9.0065 6.319 18.368 4.658 27.967-2.187 13.414-12.162 23.403-19.127 34.48-7.315 11.041-10.955 24.004-12.842 36.994-0.433 1.1833-0.684 7.2109-1.63 5.6855-0.963-12.989-2.593-26.171-7.877-38.209-2.489-6.546-6.897-12.074-9.864-18.365-2.147-3.9184-2.961-8.8286-5.273-12.42-1.059 9.2518 0.611 18.889 4.972 27.164 9.034 15.064 14.514 32.094 16.815 49.469 0.485 2.3584 0.345 5.2749 1.365 7.3399 1.274-4.935 1.637-10.12 3.061-15.049 2.97-10.707 8.2-20.618 13.041-30.568 7.241-14.529 17.639-27.913 20.756-44.168 1.524-7.1454-0.511-14.332-2.952-21.02-1.746-5.6725-5.63-11.119-4.615-17.291 1.909-7.7761 0.666-17.032-5.785-22.41-4.589-3.0542-8.862-7.0011-11.223-12.041 3.287 0.7433 6.353 3.1856 9.45 4.7715 6.753 3.7111 12.541 9.2942 15.601 16.451 3.592 6.4485 3.728 13.898 4.834 21 0.913 7.6895 3.521 15.293 2.723 23.1-1.72 12.213-9.22 22.416-13.821 33.607-2.697 7.2161-5.972 14.299-10.808 20.359 6.176-5.4619 8.771-13.617 13.359-20.281 6.097-9.9006 15.219-18.695 16.59-30.809 1.005-7.1635-0.244-14.454-3.223-21.016-2.452-5.8756-3.119-12.201-4.236-18.402-1.632-9.3485-6.48-17.867-13.129-24.564-4.069-3.8577-7.605-8.572-12.646-11.211-5.783-1.7891-11.988-1.5019-17.985-1.6328zm-126.59 3.3555c0.749 0.055 1.308 0.5207 1.598 1.4863-10.776 14.121-4.928 39.194-25.291 45.44-9.298 4.0184-20.677-1.2022-26.4-8.8125 6.046 0.8909 31.075 9.6892 33.244-8.7813-2.93-9.9369 11.611-29.717 16.849-29.332zm258.17 0.01c15.428 2.667 11.283 52.311 39.631 40.022 12.313-8.8322 7.038 1.6386-0.896 5.5488-4.147 2.1309-8.982 3.1111-13.602 2.2285-23.299-4.5807-16.81-32.816-28.494-47.674 1.218-0.272 2.333-0.3028 3.361-0.125zm-34.74 7.5176c1.169-0.1053 4.357 1.9856 7.998 6.2109 4.286 11.791-0.256 6.7075-3.885 0.7539-4.433-4.5588-5.282-6.8595-4.113-6.9648zm-189.33 0.062-1.322 2.9375-1.432 2.3535c-8.42 16.287-7.476-4.0037 2.754-5.291zm4.021 1.6758c10.495 4.3854-4.745 23.449-9.019 32.711-1.251 4.3218-1.772 8.7962-2.332 13.244-6.574-11.603 5.736-31.975 11.351-45.955zm177.67 1.7422c7.62 1.5113 16.463 24.201 16.752 35.078-0.05 3.0886-0.171 6.2068-0.97 9.2129 1.075-13.914-17.316-29.058-15.782-44.291zm-7.613 3.5175c8.01 10.319 20.252 32.296 16.758 50.174-0.07 3.581-0.176 7.1619-0.375 10.738-0.131 14.97-3.26 4.597-2.773-3.6152 3.662-21.165-17.801-36.786-13.61-57.297zm-159.8 1.2637c2.159-0.1503 3.719 3.1209 1.991 10.287-6.085 17.186-17.53 33.284-15.262 52.477-0.51 0.416 0.715 9.9355-1.674 7.2851-4.334-20.077-2.383-42.407 9.361-59.809 0.669-6.5189 3.426-10.09 5.584-10.24zm-37.195 19.262c2.359 1.3521-12.061 25.667-21.187 25.969-6.649 2.573-14.111 1.2976-20.153-2.2344 13.63-0.8694 31.452-10.012 40.639-23.684 0.313-0.1279 0.544-0.1409 0.701-0.051zm233.6 0.059c1.852-0.2585 10.445 8.344 13.615 11.975 2.586 10.282 30.346 8.0422 24.705 13.205-14.862 7.3103-29.69-4.7837-35.527-18.035-3.084-5.0788-3.636-7.0271-2.793-7.1446zm-64.953 11.148c0.938 1.5936 1.63 3.3316 2.347 5.039 2.181 5.5832 4.682 11.217 5.02 17.283 0.208 5.3412 0.321 10.792-1.028 16.01-1.852 7.0495-4.534 13.844-6.966 20.705-1.17 3.2795-2.369 6.5585-3.272 9.9238-0.509 1.6259 0.51 0.2777 0.815-0.4746 4.091-7.5006 7.818-15.195 11.496-22.904 1.777-3.7463 3.281-7.7331 3.296-11.938 0.09-4.409 0.153-8.8295-0.13-13.232-0.206-3.9512-2.256-7.439-4.161-10.793-2.113-3.4496-4.329-6.9644-7.417-9.6191zm-60.247 8.1699c-0.287 0.023-0.674 0.9211-0.752 1.3672-1.697 4.5823-2.841 9.4995-2.246 14.408 0.761 6.5546 3.302 12.708 5.639 18.822 1.74 4.7957 3.298 9.683 4.232 14.705 0.246 1.5168 0.516 3.0311 0.84 4.5332 0.242 0.5249 0.256 2.3495 0.856 2.0098 0.289-1.3625 0.09-2.7722 0.03-4.1504-0.641-7.5329-1.843-15.012-3.359-22.416-1.391-6.1131-2.731-12.243-3.715-18.438-0.621-3.3763-0.749-6.8143-1.237-10.207-0.05-0.4758-0.162-0.6452-0.293-0.6347zm-106.83 2.9316c-2.965 10.308 10.235 34.681-4.365 46.361-21.304 11.504-35.089-26.689-10.844-32.781 2.876 0.8675-14.336 24.363 2.297 29.686 21.027 0.5914-4.543-33.121 12.912-43.266zm231.2 0.2227c10.365 5.1382 9.521 24.889 4.623 36.248 7.844 23.548 25.964-13.304 10.473-22.197 10.71-3.3126 23.478 26.929 3.777 32.392-2.591 1.1804-5.371 2.23-8.269 2.17-22.129-7.1863-3.709-33.335-10.604-48.613zm51.647 21.826c1.251-0.084 3.757 0.5201 7.978 2.0625 24.296 15.224 33.832 43.819 37.336 70.799l0.321 2.7929 0.07 1.9297c-14.977-1.7386-32.06-16.792-46.262-25.771-4.871-7.6101-33.991-16.742-22.906-23.707 19.507 11.883 36.563 27.609 56.945 38.215 7.942-5.5608-5.938-37.018-16.027-47.221-4.682-5.4904-22.869-18.737-17.449-19.1zm-335.17 0.6035c0.928 0.021 1.869 0.1337 2.824 0.3457-21.212 15.753-38.889 38.314-41.092 65.502 5.05-2.1733 39.098-15.61 19.948-18.992-16.264 3.2885-6.557-12.756 3.443-5.4062 13.456 18.69 28.732-20.35 42.096-10.309-20.029 15.741-42.822 30.274-65.119 43.674l-2.836 1.4199-2.502 1.1622c-10.609-6.4823 4.622-35.33 9.441-47.793 9.002-9.8451 19.877-29.927 33.797-29.604zm13.572 2.2148c0.835-0.033 0.305 1.0498-3.025 4.1367l-2.502 2.4356c-11.754 3.6843 3.024-6.4723 5.527-6.5723zm258.89 12.287c13.365 11.26 20.405 35.608 4.707 48.117-6.185 3.5412-18.319 5.6553-20.602-3.6934-2.006-19.078 0.39 2.3559 8.952 1.543 20.226-5.0198 14.347-32.312 6.943-45.967zm-274.89 1.1289c1.754 0.8735-0.509 13.237 7.207 9.8535 19.451 2.2943-4.181 4.0571-6.308 9.8633-4.056 12.992-4.938-8.773-13.414-4.0957-13.839-7.2891 12.968-1.9262 8.906-11.656 1.995-3.2713 3.025-4.256 3.609-3.9649zm339.47 0.2871c1.745-0.3938 4.47 8.2549 8.85 8.8887 19.779 4.62-6.882 3.4984-6.424 13.406-5.64 4.9073-2.792-6.8137-7.147-6.6739-15.815-0.5719-6.623-7.8199 2.885-7.8769 0.452-5.5182 1.043-7.5651 1.836-7.7442zm-272.68 1.4453c-11.108 11.931-10.094 51.557 11.485 40.293 2.229-15.713 5.993-0.081-0.414 5.4981-3.734 3.6249-9.564 3.2003-13.95 1.1406-21.638-9.0312-6.911-45.053 2.879-46.932zm-46.441 0.2852c0.389-0.3868 0.461-0.057-0.219 1.7656-4.954 6.9943-0.947-0.6052 0.219-1.7656zm122.98 14.978c-0.02-3e-4 -0.05 0-0.07 0.01 0.187 0.696 0.605 1.3057 0.94 1.9375 2.236 3.8213 4.716 7.4923 7.212 11.146 1.86 2.6854 3.719 5.3747 5.698 7.9746 0.212 0.1634 0.624 1.0727 0.82 0.5879-0.08-0.6804-0.443-1.2869-0.73-1.8984-1.718-3.2724-3.762-6.3613-5.815-9.4297-2.22-3.2363-4.474-6.4644-7.058-9.4238-0.303-0.2433-0.654-0.898-0.998-0.9024zm-127.31 26.33c19.566 13.058 38.03 28.248 59.576 38.144 11.593 9.5672 36.633 5.5848 41.137 20.117l0.293 1.5039-0.772 0.5215c-29.605-6.2453-57.615-19.104-82.822-35.705-6.452-6.2902-38.978-21.132-17.412-24.582zm307.9 2.0801c2.4-0.074 4.617 0.8519 6.571 3.2031-27.121 25.084-60.694 43.354-96.426 52.738-6.604 0.8034-14.233 7.042-9.453-5.3008 22.316-6.7792 44.423-15.199 64.119-27.877 10.935-3.3357 24.79-22.442 35.189-22.764zm-256.54 10.432c8.913 5.0186 28.238 10.436 31.545 13.32-12.621 6.9128-25.628-2.0406-31.545-13.32zm201.05 0.9063c4.271-0.2753-1.355 8.6762-9.125 12.688-3.723 1.7351-7.912 2.3951-11.998 2.1465-21.28-6.9375 7.8-3.0144 13.266-10.959 3.91-2.6668 6.433-3.7833 7.857-3.875zm-281.75 2.1211c0.711-0.215 1.916-0.1362 3.726 0.3183 28.175 26.169 61.946 46.191 98.416 58.363 13.658 6.4849 32.244 5.3313 43.272 14.414l-0.397 1.2597-1.578 0.4707c-45.435-6.6468-88.964-25.866-124.88-54.455-4.381-2.922-23.538-18.867-18.558-20.371zm362.11 1.1523c1.406-0.1913 1.889 1.0035 0.795 4.4473-35.191 35.328-81.991 58.92-130.89 67.945-3.574-0.1872-15.052 5.0765-10.086-3.3789 43.409-8.3159 85.628-25.362 120.26-53.219 3.18-2.1775 15.7-15.221 19.916-15.795zm-134.97 35.207c-6.645 25.696-23.233 47.658-37.996 69.363-2.026 2.7637-3.99 5.5756-6.135 8.25-17.034-22.865-33.778-46.866-43.262-73.961 6.037-2.255 15.751 20.498 21.361 28.084 8.798 10.169 20.368 47.624 31.096 20.053 12.326-16.693 20.437-37.138 34.936-51.789z"/></g></svg>